<svg id="Ebene_1" data-name="Ebene 1" xmlns="http://www.w3.org/2000/svg" viewBox="0 0 66.404 55.54"><defs><style>.cls-1{fill:#727272;}</style></defs><title>chair</title><g id="Group_36" data-name="Group 36"><path id="Path_8" data-name="Path 8" class="cls-1" d="M.062,24.764,3.154,41.133a3.75623,3.75623,0,0,1,.061.608c.174,7.618,6.804,13.799,14.884,13.799h30.55c8.093,0,14.731-6.2,14.884-13.834a3.659,3.659,0,0,1,.048-.54l2.774-16.471a3.487,3.487,0,0,0-.569-2.57h-4.83L58.614,36.04c0,6.506-5.62,11.83-12.489,11.83H20.498c-6.868,0-12.489-5.325-12.489-11.832L5.381,22.125H.618A3.494,3.494,0,0,0,.062,24.764Z"/><path id="Path_9" data-name="Path 9" class="cls-1" d="M18.469,0H48.406A9.955,9.955,0,0,1,58.588,9.647L54.326,34.959a9.955,9.955,0,0,1-10.182,9.647H23.251a9.955,9.955,0,0,1-10.183-9.647L8.288,9.647A9.95427,9.95427,0,0,1,18.469,0Z"/></g></svg>