<svg id="Ebene_1" data-name="Ebene 1" xmlns="http://www.w3.org/2000/svg" viewBox="0 0 13.471 13.472"><defs><style>.cls-1{fill:#da2b4d;}</style></defs><title>cross</title><path id="Path_46" data-name="Path 46" class="cls-1" d="M5.354,8.116H1.622C.593,8.111-.015,7.578,0,6.71c.014-.836.614-1.347,1.609-1.353,1.225-.007,2.45,0,3.745,0,0-1.306-.007-2.552,0-3.8A1.394,1.394,0,0,1,6.438.033,1.363,1.363,0,0,1,8.115,1.478c.02,1.055,0,2.11.005,3.165v.713c1.306,0,2.552-.006,3.8,0a1.4,1.4,0,0,1,1.518,1.078,1.364,1.364,0,0,1-1.445,1.677c-1.055.02-2.11,0-3.165.005H8.116c0,1.306.006,2.552,0,3.8a1.4,1.4,0,0,1-1.078,1.522,1.363,1.363,0,0,1-1.679-1.446c-.02-1.055,0-2.11-.005-3.165Z"/></svg>