<?xml version="1.0" encoding="utf-8"?>
<!-- Generator: Adobe Illustrator 23.0.3, SVG Export Plug-In . SVG Version: 6.00 Build 0)  -->
<svg version="1.1" id="Ebene_1" xmlns="http://www.w3.org/2000/svg" xmlns:xlink="http://www.w3.org/1999/xlink" x="0px" y="0px"
	 viewBox="0 0 100 100" style="enable-background:new 0 0 100 100;" xml:space="preserve">
<g>
	<path d="M88,39.02c-19.15,6.69-37.8,13.21-56.69,19.82c0-13.25,0-26.27,0-39.62C50.05,25.77,68.75,32.3,88,39.02z"/>
	<path d="M24.84,17.95c1.76,0,3.4,0,5.2,0c0,14,0,27.98,0,42.11c-1.69,0-3.38,0-5.2,0C24.84,46.04,24.84,32.06,24.84,17.95z"/>
	<path d="M24.72,61.29c1.93,0,3.63,0,5.48,0c0,3.17,0,6.22,0,9.26c0,7.15-0.04,14.29,0.03,21.44c0.01,1.51-0.37,2.09-1.97,2.04
		c-4.19-0.13-3.52,0.35-3.53-3.56C24.69,80.83,24.72,71.19,24.72,61.29z"/>
	<path d="M30.23,16.76c-2.02,0-3.66,0-5.69,0c0.23-1.33,0.19-3.34,0.68-3.48c1.44-0.42,3.19-0.36,4.61,0.12
		C30.3,13.55,30.12,15.6,30.23,16.76z"/>
</g>
</svg>
