<svg id="Ebene_1" data-name="Ebene 1" xmlns="http://www.w3.org/2000/svg" viewBox="0 0 65.469 65.486"><defs><style>.cls-1{fill:#fcf9ef;}</style></defs><title>add-button</title><path id="Path_41" data-name="Path 41" class="cls-1" d="M30.279-.004h4.922l1.536.193a31.525,31.525,0,0,1,17.686,8c8.814,8.034,12.376,18.072,10.6,29.875A31.1,31.1,0,0,1,53.695,57.898a32.049,32.049,0,0,1-24.609,7.384,31.624,31.624,0,0,1-17.214-7.286A32.017,32.017,0,0,1,.572,38.934C.331,37.699.19,36.444.003,35.198V30.13c.167-1.121.293-2.25.506-3.363A32.186,32.186,0,0,1,11.857,7.496,31.021,31.021,0,0,1,26.547.576C27.788.366,29.035.196,30.279-.004Zm7.908,27.3v-.89c0-3.23-.043-6.461.019-9.69a2.894,2.894,0,0,0-2.73685-3.043q-.13146-.007-.26315-.002c-1.636.082-3.279.01-4.919.019a2.742,2.742,0,0,0-3,3q-.006,4.883,0,9.765v.841h-.906c-3.255,0-6.51-.007-9.765,0a2.7,2.7,0,0,0-2.939,2.906c-.017,1.64-.011,3.28,0,4.92.011,2.037,1.044,3.058,3.087,3.06q4.846.005,9.691,0h.834v10.53a2.773,2.773,0,0,0,3.087,3.084q2.385.013,4.771,0a2.769,2.769,0,0,0,3.04-3.051V38.191H48.758a2.722,2.722,0,0,0,3.041-3.034c.011-1.54,0-3.081,0-4.622,0-2.236-1-3.232-3.218-3.233-3.425-.006-6.852-.006-10.393-.006Z"/></svg>