<svg id="Ebene_1" data-name="Ebene 1" xmlns="http://www.w3.org/2000/svg" width="150" height="150" viewBox="0 0 150 150">
  <defs>
    <style>
      .cls-1 {
        fill: #727272;
      }
    </style>
  </defs>
  <title>discussion</title>
  <g id="Gruppe_36" data-name="Gruppe 36">
    <path id="Pfad_8" data-name="Pfad 8" class="cls-1" d="M64.99291,47.44241,59.834,43.83562a1.41837,1.41837,0,0,1-.17727-.14828,5.50918,5.50918,0,0,0-7.6665.20284l-8.255,8.06882a5.50687,5.50687,0,0,0-.36829,7.66946,1.38276,1.38276,0,0,1,.12958.15852l3.60106,5.18317a1.31743,1.31743,0,0,0,.83251.54417l1.30505-1.27561-3.041-4.37748a4.61353,4.61353,0,0,1,.24953-6.49572l6.92405-6.76786a4.6137,4.6137,0,0,1,6.49973-.1013l4.38421,3.06458,1.28719-1.25816A1.32034,1.32034,0,0,0,64.99291,47.44241Z"/>
    <path id="Pfad_9" data-name="Pfad 9" class="cls-1" d="M66.55954,58.99614l-8.08926,7.90679a3.76156,3.76156,0,0,1-5.29952.08247l-5.53388-7.96519A3.76174,3.76174,0,0,1,47.8402,53.724l5.64588-5.51852A3.76155,3.76155,0,0,1,58.7856,48.123l7.97727,5.57691A3.7619,3.7619,0,0,1,66.55954,58.99614Z"/>
  </g>
  <g id="Gruppe_36-2" data-name="Gruppe 36">
    <path id="Pfad_8-2" data-name="Pfad 8" class="cls-1" d="M83.641,101.53875,88.8,105.14553a1.41947,1.41947,0,0,1,.17728.14828,5.50917,5.50917,0,0,0,7.6665-.20283l8.255-8.06882a5.50687,5.50687,0,0,0,.3683-7.66946,1.38371,1.38371,0,0,1-.12959-.15852L101.5364,84.011a1.31741,1.31741,0,0,0-.8325-.54416l-1.30505,1.27561,3.041,4.37747a4.61353,4.61353,0,0,1-.24954,6.49573l-6.924,6.76786a4.6137,4.6137,0,0,1-6.49973.10129l-4.38421-3.06457-1.28719,1.25816A1.32029,1.32029,0,0,0,83.641,101.53875Z"/>
    <path id="Pfad_9-2" data-name="Pfad 9" class="cls-1" d="M82.07438,89.985l8.08927-7.9068a3.76156,3.76156,0,0,1,5.29952-.08246l5.53388,7.96519a3.76173,3.76173,0,0,1-.20333,5.29626l-5.64587,5.51852a3.76155,3.76155,0,0,1-5.29952.08246l-7.97727-5.57691A3.7619,3.7619,0,0,1,82.07438,89.985Z"/>
  </g>
</svg>
