<?xml version="1.0" encoding="utf-8"?>
<!-- Generator: Adobe Illustrator 23.0.0, SVG Export Plug-In . SVG Version: 6.00 Build 0)  -->
<svg version="1.1" id="Ebene_1" xmlns="http://www.w3.org/2000/svg" xmlns:xlink="http://www.w3.org/1999/xlink" x="0px" y="0px"
	 viewBox="0 0 150 150" style="enable-background:new 0 0 150 150;" xml:space="preserve">
<style type="text/css">
	.st0{fill:#727272;}
</style>
<g id="Gruppe_36_3_" transform="translate(95.461 81.302) rotate(-179)">
	<path id="Pfad_8_3_" class="st0" d="M34.28,34.5l-1.21-6.18c-0.01-0.08-0.02-0.15-0.02-0.23c-0.08-2.88-2.6-5.2-5.66-5.18
		l-11.54,0.07c-3.06,0.02-5.55,2.38-5.59,5.26c0,0.07-0.01,0.14-0.02,0.2l-1.01,6.23c-0.06,0.34,0.02,0.69,0.22,0.97l1.82-0.01
		l0.85-5.26c-0.01-2.46,2.1-4.48,4.69-4.5l9.68-0.06c2.6-0.02,4.73,1.98,4.75,4.44l1.02,5.25l1.8-0.01
		C34.28,35.21,34.35,34.85,34.28,34.5z"/>
	<path id="Pfad_9_3_" class="st0" d="M27.39,43.9l-11.31,0.07c-2.12,0.01-3.86-1.62-3.87-3.62l1.55-9.57
		c-0.01-2,1.71-3.66,3.83-3.67l7.89-0.05c2.12-0.01,3.86,1.62,3.87,3.62l1.86,9.55C31.22,42.23,29.5,43.89,27.39,43.9z"/>
</g>
<g id="Gruppe_36_1_" transform="translate(95.461 81.302) rotate(-179)">
	<path id="Pfad_8_1_" class="st0" d="M33.34-19.49l-1.21-6.18c-0.01-0.08-0.02-0.15-0.02-0.23c-0.08-2.88-2.6-5.2-5.66-5.18
		l-11.54,0.07c-3.06,0.02-5.55,2.38-5.59,5.26c0,0.07-0.01,0.14-0.02,0.2l-1.01,6.23c-0.06,0.34,0.02,0.69,0.22,0.97l1.82-0.01
		l0.85-5.26c-0.01-2.46,2.1-4.48,4.69-4.5l9.68-0.06c2.6-0.02,4.73,1.98,4.75,4.44l1.02,5.25l1.8-0.01
		C33.34-18.79,33.41-19.15,33.34-19.49z"/>
	<path id="Pfad_9_1_" class="st0" d="M26.44-10.09l-11.31,0.07c-2.12,0.01-3.86-1.62-3.87-3.62l1.55-9.57
		c-0.01-2,1.71-3.66,3.83-3.67l7.89-0.05c2.12-0.01,3.86,1.62,3.87,3.62l1.86,9.55C30.28-11.76,28.56-10.11,26.44-10.09z"/>
</g>
</svg>
