<svg id="Ebene_1" data-name="Ebene 1" xmlns="http://www.w3.org/2000/svg" width="150" height="150" viewBox="0 0 150 150">
  <defs>
    <style>
      .cls-1 {
        fill: #727272;
      }
    </style>
  </defs>
  <title>lane_horizontal</title>
  <g id="Gruppe_36" data-name="Gruppe 36">
    <path id="Pfad_8" data-name="Pfad 8" class="cls-1" d="M26.78412,74.20962l1.09754,6.19831a1.41885,1.41885,0,0,1,.0205.2302,5.50916,5.50916,0,0,0,5.56446,5.2776l11.5427.13167a5.50684,5.50684,0,0,0,5.68355-5.1627,1.384,1.384,0,0,1,.02046-.20372l1.11873-6.21139a1.31747,1.31747,0,0,0-.20389-.97346l-1.8248-.02081-.945,5.24567a4.61353,4.61353,0,0,1-4.76962,4.41673l-9.68164-.11044a4.61369,4.61369,0,0,1-4.66762-4.52439l-.93313-5.26709-1.79983-.02053A1.32032,1.32032,0,0,0,26.78412,74.20962Z"/>
    <path id="Pfad_9" data-name="Pfad 9" class="cls-1" d="M33.84606,64.93213l11.31093.129a3.76156,3.76156,0,0,1,3.80563,3.689l-1.71919,9.54528a3.76174,3.76174,0,0,1-3.8888,3.60125l-7.89441-.09a3.76156,3.76156,0,0,1-3.80564-3.689l-1.69731-9.58425A3.76189,3.76189,0,0,1,33.84606,64.93213Z"/>
  </g>
  <g id="Gruppe_36-2" data-name="Gruppe 36-2">
    <path id="Pfad_8-2" data-name="Pfad 8-2" class="cls-1" d="M97.78412,74.20962l1.09754,6.19831a1.41885,1.41885,0,0,1,.0205.2302,5.50917,5.50917,0,0,0,5.56446,5.2776l11.5427.13167a5.50685,5.50685,0,0,0,5.68355-5.1627,1.38532,1.38532,0,0,1,.02046-.20372l1.11873-6.21139a1.31743,1.31743,0,0,0-.20389-.97346l-1.82479-.02081-.945,5.24567a4.61354,4.61354,0,0,1-4.76963,4.41673l-9.68164-.11044a4.61371,4.61371,0,0,1-4.66762-4.52439l-.93312-5.26709-1.79983-.02053A1.32033,1.32033,0,0,0,97.78412,74.20962Z"/>
    <path id="Pfad_9-2" data-name="Pfad 9-2" class="cls-1" d="M104.84606,64.93213l11.31093.129a3.76155,3.76155,0,0,1,3.80563,3.689l-1.71919,9.54528a3.76174,3.76174,0,0,1-3.8888,3.60125l-7.89441-.09a3.76156,3.76156,0,0,1-3.80564-3.689l-1.69731-9.58425A3.76189,3.76189,0,0,1,104.84606,64.93213Z"/>
  </g>
</svg>
